<svg width="100" height="100" viewBox="0 0 193 193" xmlns="http://www.w3.org/2000/svg" xml:space="preserve" style="fill-rule:evenodd;clip-rule:evenodd;stroke-linejoin:round;stroke-miterlimit:2"><g transform="translate(-565.871 -1478.51)"/><path style="fill:none" d="M223.025 2.427h180.978v180.978H223.025z" transform="matrix(1.06114 0 0 1.06113 -236.661 -2.58)"/><path d="M390.254 54.088c0-19.984-16.218-36.208-36.194-36.208h-72.443c-19.977 0-36.195 16.224-36.195 36.208v72.416c0 19.983 16.218 36.208 36.195 36.208h72.443c19.976 0 36.194-16.225 36.194-36.208z" style="fill:#57bfd4" transform="matrix(.94538 0 0 .94502 -204.458 10.684)"/><path d="M356.238 137.838c0-7.615-6.18-13.798-13.793-13.798h-64.801c-7.613 0-13.793 6.183-13.793 13.798s6.18 13.798 13.793 13.798h64.801c7.613 0 13.793-6.182 13.793-13.798" style="fill:#232323" transform="matrix(.87778 0 0 .87745 -176.13 17.494)"/><path d="M192.583 710.885h414.834c57.184 0 103.708-46.524 103.708-103.708v-44.379H88.875v44.379c0 57.184 46.524 103.708 103.708 103.708" style="fill:#232323;fill-rule:nonzero" transform="matrix(.09841 0 0 .09842 56.65 37.988)"/><path d="M43.735 473.873c.231-.003.46-.036.694-.036h711.142c.234 0 .46.042.694.036 41.152-1.028 62.068-19.628 62.068-43.944 0-24.472-32.657-45.226-62.744-44.916H44.408c-24.487.003-59.402 13.363-61.356 41.253-2.061 29.423 36.51 47.242 60.683 47.607" style="fill:#232323;fill-rule:nonzero" transform="matrix(.09841 0 0 .1663 56.586 10.503)"/><path d="M625.411 158.241c-59.587-44.577-139.514-69.126-225.052-69.126-85.548 0-165.483 24.549-225.074 69.129-50.868 38.049-78.588 123.378-83.441 174.72l618.872.341c-6.054-88.681-34.437-137.012-85.305-175.064" style="fill:#232323;fill-rule:nonzero" transform="matrix(.09951 0 0 .09842 56.086 37.53)"/></svg>