
<svg xmlns="http://www.w3.org/2000/svg" viewBox="-45 -40 601 601" width="50px" height="50px"><path fill="#ffffff" d="M462.7,471.4c-5.7-9.4-6.2-11.9-11.4-17.8V207.5c0-47.2-17-93.2-47.2-129.1c15.6-6.5,22.7-24.4,16.1-39.7l-6.1-14.3C407.9,9.6,393.4,0,377.3,0H134.7c-16.1,0-30.6,9.6-36.9,24.4l-6.1,14.3c-6.6,15.5,0.7,33.2,16.2,39.7c-30.2,35.9-47.2,81.9-47.2,129.1v246.1c-5.2,6-5.8,8.5-11.4,17.8c-10.4,18,2.6,40.6,23.4,40.6h366.6c9.8,0,18.5-5.1,23.4-13.5C467.6,490,467.6,479.9,462.7,471.4z M110.9,46.9l6.1-14.3c3-7.1,10-11.7,17.7-11.7h242.5c7.7,0,14.7,4.6,17.7,11.7l6.1,14.3c2.6,6.2-1.9,13-8.6,13H119.5C112.8,59.9,108.3,53,110.9,46.9z M439.3,491.1H72.7c-4.7,0-7.7-5.1-5.3-9.2l6.2-10.7C77.9,463.6,86,459,94.6,459h87.1c5.8,0,10.4-4.7,10.4-10.4s-4.7-10.4-10.4-10.4H94.6c-4.5,0-8.9,0.7-13.1,2V207.5c0-47.3,19-93.2,52.4-126.7H378c33.3,33.5,52.4,79.4,52.4,126.7v232.6c-4.2-1.3-8.6-2-13.1-2h-51.9c-5.8,0-10.4,4.7-10.4,10.4s4.7,10.4,10.4,10.4h51.9c18.9,0,23.7,18.5,27.3,22.9C447,486,444,491.1,439.3,491.1z"/><path fill="#ffffff" d="M393,330.7V188.1c0-16.7-13.6-30.2-30.2-30.2H149.2c-16.7,0-30.2,13.6-30.2,30.2v142.6c0,16.7,13.6,30.3,30.2,30.3h213.5C379.4,361,393,347.4,393,330.7z M139.9,330.7V188.1c0-5.2,4.2-9.3,9.3-9.3h213.5c5.2,0,9.3,4.2,9.3,9.3v142.6c0,5.2-4.2,9.4-9.3,9.4H149.2C144.1,340.1,139.9,335.9,139.9,330.7z"/><path fill="#ffffff" d="M256,206c-24.4,0-61.7,38.2-76.3,69.9c-8,17.3,4.9,37,24,37h104.7c19.1,0,31.9-19.8,24-37C317.7,244.2,280.4,206,256,206z M308.3,292H203.6c-3.8,0-6.6-3.9-5-7.4c13.5-29.2,46.1-57.8,57.3-57.8c11.3,0,43.9,28.5,57.3,57.8C314.9,288.1,312.2,292,308.3,292z"/></svg>