<?xml version="1.0" encoding="UTF-8" standalone="no"?>
<!DOCTYPE svg PUBLIC "-//W3C//DTD SVG 1.1//EN" "http://www.w3.org/Graphics/SVG/1.1/DTD/svg11.dtd">
<svg width="100%" height="100%" viewBox="0 0 800 800" version="1.1" xmlns="http://www.w3.org/2000/svg" xmlns:xlink="http://www.w3.org/1999/xlink" xml:space="preserve" xmlns:serif="http://www.serif.com/" style="fill-rule:evenodd;clip-rule:evenodd;stroke-linejoin:round;stroke-miterlimit:2;">
    <path d="M491.887,87.382C552.84,26.428 651.667,26.428 712.62,87.382C773.573,148.335 773.573,247.16 712.62,308.113L396.443,624.29C378.38,642.353 367.743,652.99 355.913,662.217C341.973,673.09 326.885,682.417 310.922,690.023C297.379,696.477 283.111,701.233 258.874,709.31L147.837,746.323L121.101,755.237C99.416,762.463 75.507,756.82 59.344,740.657C43.181,724.493 37.537,700.583 44.765,678.9L90.689,541.127C98.768,516.89 103.523,502.623 109.977,489.08C117.585,473.117 126.909,458.03 137.785,444.087C147.012,432.257 157.646,421.623 175.712,403.557L491.887,87.382ZM677.263,122.737C635.837,81.31 568.67,81.31 527.243,122.737L505.18,144.801C506.32,150.633 508.247,158.561 511.46,167.829C518.7,188.694 532.373,216.096 558.14,241.862C583.903,267.627 611.307,281.301 632.17,288.54C641.44,291.755 649.367,293.682 655.2,294.822L677.263,272.757C718.69,231.33 718.69,164.164 677.263,122.737ZM614.643,335.38C588.353,326.107 554.487,308.921 522.783,277.217C491.08,245.513 473.893,211.646 464.623,185.358L212.306,437.673C192.65,457.33 184.32,465.72 177.21,474.837C168.568,485.917 161.159,497.903 155.114,510.59C150.14,521.023 146.36,532.23 137.57,558.6L105.997,653.317L146.684,694.003L241.401,662.43C267.771,653.64 278.976,649.86 289.411,644.887C302.096,638.843 314.084,631.433 325.164,622.79C334.28,615.68 342.67,607.35 362.327,587.693L614.643,335.38Z" fill="#fff"/>
</svg>
